<svg width="32" height="32" viewBox="0 0 32 32" fill="none" xmlns="http://www.w3.org/2000/svg">
<g clip-path="url(#clip0_736_1036)">
<path d="M8.39053 29.724C8.26318 29.847 8.1616 29.9941 8.09172 30.1568C8.02185 30.3194 7.98506 30.4944 7.98353 30.6714C7.98199 30.8485 8.01572 31.024 8.08276 31.1879C8.1498 31.3518 8.24881 31.5006 8.374 31.6258C8.49919 31.751 8.64806 31.85 8.81192 31.9171C8.97578 31.9841 9.15136 32.0178 9.32839 32.0163C9.50543 32.0148 9.68039 31.978 9.84306 31.9081C10.0057 31.8382 10.1529 31.7367 10.2759 31.6093L21.1719 20.7133C22.42 19.4623 23.121 17.7672 23.121 16C23.121 14.2328 22.42 12.5377 21.1719 11.2866L10.2759 0.39064C10.0244 0.147762 9.68759 0.0133699 9.33799 0.0164078C8.98839 0.0194457 8.65398 0.159671 8.40677 0.406882C8.15956 0.654093 8.01933 0.988509 8.01629 1.3381C8.01326 1.6877 8.14765 2.0245 8.39053 2.27597L19.2865 13.172C20.0364 13.9221 20.4577 14.9393 20.4577 16C20.4577 17.0606 20.0364 18.0779 19.2865 18.828L8.39053 29.724Z" fill="#2A6CEA"/>
</g>
<defs>
<clipPath id="clip0_736_1036">
<rect width="32" height="32" fill="white"/>
</clipPath>
</defs>
</svg>
