<svg width="32" height="32" viewBox="0 0 32 32" fill="none" xmlns="http://www.w3.org/2000/svg">
<path d="M23.839 2.27597C24.0818 2.0245 24.2162 1.6877 24.2132 1.3381C24.2102 0.988509 24.0699 0.654093 23.8227 0.406882C23.5755 0.159671 23.2411 0.0194457 22.8915 0.0164078C22.5419 0.0133699 22.2051 0.147762 21.9536 0.39064L11.0576 11.2866C9.80782 12.5368 9.10571 14.2322 9.10571 16C9.10571 17.7677 9.80782 19.4631 11.0576 20.7133L21.9536 31.6093C22.2051 31.8522 22.5419 31.9866 22.8915 31.9835C23.2411 31.9805 23.5755 31.8403 23.8227 31.5931C24.0699 31.3459 24.2102 31.0114 24.2132 30.6618C24.2162 30.3122 24.0818 29.9754 23.839 29.724L12.943 18.828C12.1931 18.0779 11.7718 17.0606 11.7718 16C11.7718 14.9393 12.1931 13.9221 12.943 13.172L23.839 2.27597Z" fill="#C2C8CD"/>
</svg>
